<?xml version="1.0" standalone="no"?>
<!DOCTYPE svg PUBLIC "-//W3C//DTD SVG 20010904//EN"
 "http://www.w3.org/TR/2001/REC-SVG-20010904/DTD/svg10.dtd">
<svg version="1.0" xmlns="http://www.w3.org/2000/svg"
 width="411.000000pt" height="411.000000pt" viewBox="0 0 411.000000 411.000000"
 preserveAspectRatio="xMidYMid meet">

<g transform="translate(0.000000,411.000000) scale(0.100000,-0.100000)"
fill="#000000" stroke="none">
<path d="M1397 3924 c-59 -101 -107 -186 -107 -188 0 -2 42 9 93 24 119 36
254 58 436 73 l145 12 -225 129 c-123 71 -227 131 -230 132 -3 2 -54 -80 -112
-182z"/>
<path d="M2850 3871 c-102 -31 -192 -60 -200 -63 -9 -3 20 -22 75 -50 115 -59
243 -143 373 -247 95 -76 103 -80 98 -54 -18 76 -144 467 -152 469 -5 2 -92
-23 -194 -55z"/>
<path d="M423 3132 c-149 -46 -243 -81 -243 -88 0 -7 11 -48 24 -91 14 -43 41
-132 61 -197 l37 -119 57 109 c75 144 189 309 309 447 8 9 11 17 6 16 -5 -1
-118 -35 -251 -77z"/>
<path d="M1853 3190 c-148 -31 -245 -131 -246 -254 -1 -58 17 -98 64 -144 48
-47 129 -81 284 -118 476 -115 572 -139 704 -180 528 -164 784 -363 909 -707
l27 -75 220 381 c121 210 237 411 257 447 l37 66 -306 177 c-168 98 -308 176
-310 173 -2 -2 1 -34 8 -70 6 -37 10 -69 8 -70 -2 -2 -228 -17 -503 -33 -331
-19 -499 -25 -501 -18 -56 200 -103 282 -195 346 -83 57 -164 80 -300 85 -63
2 -134 -1 -157 -6z"/>
<path d="M350 2113 c-157 -272 -300 -521 -317 -552 l-33 -57 262 -152 c145
-83 264 -149 265 -148 2 2 -3 32 -11 67 -8 35 -18 94 -22 130 l-6 66 78 7
c232 18 917 57 930 52 8 -3 14 -16 14 -29 0 -47 41 -183 76 -256 67 -136 193
-236 349 -276 78 -20 272 -20 348 0 236 61 361 269 275 457 -69 150 -196 215
-625 319 -272 65 -416 109 -580 175 -373 149 -587 339 -684 605 -17 46 -31 84
-32 85 -1 1 -130 -221 -287 -493z"/>
<path d="M3766 1384 c-67 -131 -171 -281 -284 -411 -29 -35 -51 -63 -47 -63
14 0 480 144 488 151 8 6 -98 375 -112 391 -3 4 -24 -27 -45 -68z"/>
<path d="M915 637 c112 -370 138 -453 144 -458 3 -3 95 22 205 56 l198 62 -98
53 c-123 65 -241 146 -365 249 l-96 79 12 -41z"/>
<path d="M2780 359 c-95 -38 -382 -85 -565 -91 l-69 -3 224 -129 c124 -71 228
-131 231 -132 3 -2 48 70 99 159 51 89 100 172 108 185 16 24 10 26 -28 11z"/>
</g>
</svg>
